#define idd50_width 205
#define idd50_height 18
static unsigned char idd50_bits[] = {
 0x00,0x00,0x00,0x00,0x00,0x00,0x00,0x00,0x00,0x00,0x00,0x00,0x00,0x00,0x00,
 0x00,0x00,0x00,0x00,0x00,0x00,0x00,0x00,0x00,0x00,0x00,0x74,0x1c,0x00,0x00,
 0x00,0x39,0x00,0x00,0x00,0xc0,0x71,0x00,0x00,0x00,0xc0,0x71,0x00,0x00,0x00,
 0x00,0x72,0x00,0x00,0x00,0x00,0x00,0x94,0x24,0x00,0x00,0xc0,0x45,0x00,0x00,
 0x00,0x20,0x8a,0x00,0x00,0x00,0x20,0x8a,0x00,0x00,0x00,0x00,0x8b,0x00,0x00,
 0x00,0x00,0x00,0x14,0x45,0x00,0x00,0x00,0x45,0x00,0x00,0x00,0x00,0x8a,0x00,
 0x00,0x00,0x00,0x8a,0x00,0x00,0x00,0x80,0x8a,0x00,0x00,0x00,0x00,0x00,0x14,
 0x45,0x00,0x00,0x00,0x45,0x00,0x00,0x00,0x00,0x8a,0x00,0x00,0x00,0x00,0x8a,
 0x00,0x00,0x00,0x80,0x8a,0x00,0x00,0x00,0x00,0x00,0x14,0x45,0x00,0x00,0x00,
 0x45,0x00,0x00,0x00,0x00,0x89,0x00,0x00,0x00,0x80,0x89,0x00,0x00,0x00,0x40,
 0x8a,0x00,0x00,0x00,0x00,0x00,0x14,0x45,0x00,0x00,0x00,0x45,0x00,0x00,0x00,
 0x80,0x88,0x00,0x00,0x00,0x00,0x8a,0x00,0x00,0x00,0xc0,0x8b,0x00,0x00,0x00,
 0x00,0x00,0x14,0x45,0x00,0x00,0x00,0x45,0x00,0x00,0x00,0x40,0x88,0x00,0x00,
 0x00,0x00,0x8a,0x00,0x00,0x00,0x00,0x8a,0x00,0x00,0x00,0x00,0x00,0x94,0x24,
 0x00,0x00,0x00,0x45,0x00,0x00,0x00,0x20,0x88,0x00,0x00,0x00,0x20,0x8a,0x00,
 0x00,0x00,0x00,0x8a,0x00,0x00,0x00,0x00,0x00,0x74,0x1c,0x00,0x00,0x00,0x39,
 0x00,0x00,0x00,0xe0,0x73,0x00,0x00,0x00,0xc0,0x71,0x00,0x00,0x00,0x00,0x72,
 0x00,0x00,0x00,0x00,0x00,0x00,0x00,0x00,0x00,0x00,0x00,0x00,0x00,0x00,0x00,
 0x00,0x00,0x00,0x00,0x00,0x00,0x00,0x00,0x00,0x00,0x00,0x00,0x00,0x00,0x00,
 0x00,0x04,0x00,0x00,0x00,0x00,0x04,0x00,0x00,0x00,0x00,0x04,0x00,0x00,0x00,
 0x00,0x04,0x00,0x00,0x00,0x00,0x04,0x00,0x00,0x00,0x00,0x04,0x04,0x00,0x40,
 0x00,0x00,0x04,0x00,0x40,0x00,0x00,0x04,0x00,0x40,0x00,0x00,0x04,0x00,0x40,
 0x00,0x00,0x04,0x00,0x40,0x00,0x00,0x04,0x04,0x00,0x40,0x00,0x00,0x04,0x00,
 0x40,0x00,0x00,0x04,0x00,0x40,0x00,0x00,0x04,0x00,0x40,0x00,0x00,0x04,0x00,
 0x40,0x00,0x00,0x04,0x04,0x00,0x40,0x00,0x00,0x04,0x00,0x40,0x00,0x00,0x04,
 0x00,0x40,0x00,0x00,0x04,0x00,0x40,0x00,0x00,0x04,0x00,0x40,0x00,0x00,0x04,
 0x44,0x44,0x44,0x44,0x44,0x44,0x44,0x44,0x44,0x44,0x44,0x44,0x44,0x44,0x44,
 0x44,0x44,0x44,0x44,0x44,0x44,0x44,0x44,0x44,0x44,0x04,0x44,0x44,0x44,0x44,
 0x44,0x44,0x44,0x44,0x44,0x44,0x44,0x44,0x44,0x44,0x44,0x44,0x44,0x44,0x44,
 0x44,0x44,0x44,0x44,0x44,0x44,0x04,0xfc,0xff,0xff,0xff,0xff,0xff,0xff,0xff,
 0xff,0xff,0xff,0xff,0xff,0xff,0xff,0xff,0xff,0xff,0xff,0xff,0xff,0xff,0xff,
 0xff,0xff,0x07 };
