#define P10_width 205
#define P10_height 18
static unsigned char P10_bits[] = {
 0xfc,0xff,0xff,0xff,0xff,0xff,0xff,0xff,0xff,0xff,0xff,0xff,0xff,0xff,0xff,
 0xff,0xff,0xff,0xff,0xff,0xff,0xff,0xff,0xff,0xff,0x07,0x54,0x55,0x55,0x55,
 0x55,0x55,0x55,0x55,0x55,0x55,0x55,0x55,0x55,0x55,0x55,0x55,0x55,0x55,0x55,
 0x55,0x55,0x55,0x55,0x55,0x55,0x05,0x54,0x55,0x55,0x55,0x55,0x55,0x55,0x55,
 0x55,0x55,0x55,0x55,0x55,0x55,0x55,0x55,0x55,0x55,0x55,0x55,0x55,0x55,0x55,
 0x55,0x55,0x05,0x04,0x10,0x40,0x00,0x01,0x04,0x10,0x40,0x00,0x01,0x04,0x10,
 0x40,0x00,0x01,0x04,0x10,0x40,0x00,0x01,0x04,0x10,0x40,0x00,0x01,0x04,0x04,
 0x10,0x40,0x00,0x01,0x04,0x10,0x40,0x00,0x01,0x04,0x10,0x40,0x00,0x01,0x04,
 0x10,0x40,0x00,0x01,0x04,0x10,0x40,0x00,0x01,0x04,0x04,0x00,0x40,0x00,0x00,
 0x04,0x00,0x40,0x00,0x00,0x04,0x00,0x40,0x00,0x00,0x04,0x00,0x40,0x00,0x00,
 0x04,0x00,0x40,0x00,0x00,0x04,0x04,0x00,0x40,0x00,0x00,0x04,0x00,0x40,0x00,
 0x00,0x04,0x00,0x40,0x00,0x00,0x04,0x00,0x40,0x00,0x00,0x04,0x00,0x40,0x00,
 0x00,0x04,0x00,0x00,0x00,0x00,0x00,0x00,0x00,0x00,0x00,0x00,0x00,0x00,0x00,
 0x00,0x00,0x00,0x00,0x00,0x00,0x00,0x00,0x00,0x00,0x00,0x00,0x00,0x00,0x00,
 0x00,0x00,0x00,0x0e,0x00,0x00,0x00,0x00,0x04,0x00,0x00,0x00,0x00,0x0e,0x00,
 0x00,0x00,0x00,0x0e,0x00,0x00,0x00,0x00,0x00,0xf0,0x00,0x00,0x00,0x00,0x11,
 0x00,0x00,0x00,0x00,0x06,0x00,0x00,0x00,0x00,0x11,0x00,0x00,0x00,0x00,0x11,
 0x00,0x00,0x00,0x00,0x00,0x10,0x01,0x00,0x00,0x00,0x10,0x00,0x00,0x00,0x00,
 0x06,0x00,0x00,0x00,0x00,0x01,0x00,0x00,0x00,0x00,0x11,0x00,0x00,0x00,0x00,
 0x00,0x10,0x01,0x00,0x00,0x00,0x10,0x00,0x00,0x00,0x00,0x05,0x00,0x00,0x00,
 0x00,0x01,0x00,0x00,0x00,0x00,0x11,0x00,0x00,0x00,0x00,0x00,0x10,0x01,0x00,
 0x00,0x00,0x08,0x00,0x00,0x00,0x00,0x05,0x00,0x00,0x00,0x00,0x1f,0x00,0x00,
 0x00,0x00,0x0e,0x00,0x00,0x00,0x00,0x00,0xf0,0x0c,0x00,0x00,0x00,0x04,0x00,
 0x00,0x00,0x80,0x04,0x00,0x00,0x00,0x00,0x11,0x00,0x00,0x00,0x00,0x11,0x00,
 0x00,0x00,0x00,0x00,0x10,0x12,0x00,0x00,0x00,0x02,0x00,0x00,0x00,0x80,0x0f,
 0x00,0x00,0x00,0x00,0x11,0x00,0x00,0x00,0x00,0x11,0x00,0x00,0x00,0x00,0x00,
 0x10,0x12,0x00,0x00,0x00,0x01,0x00,0x00,0x00,0x00,0x04,0x00,0x00,0x00,0x00,
 0x11,0x00,0x00,0x00,0x00,0x11,0x00,0x00,0x00,0x00,0x00,0x10,0x0c,0x00,0x00,
 0x00,0x1f,0x00,0x00,0x00,0x00,0x04,0x00,0x00,0x00,0x00,0x0e,0x00,0x00,0x00,
 0x00,0x0e,0x00,0x00,0x00,0x00,0x00,0x00,0x00,0x00,0x00,0x00,0x00,0x00,0x00,
 0x00,0x00,0x00,0x00,0x00,0x00,0x00,0x00,0x00,0x00,0x00,0x00,0x00,0x00,0x00,
 0x00,0x00,0x00 };
