#define P15_width 205
#define P15_height 18
static unsigned char P15_bits[] = {
 0xfc,0xff,0xff,0xff,0xff,0xff,0xff,0xff,0xff,0xff,0xff,0xff,0xff,0xff,0xff,
 0xff,0xff,0xff,0xff,0xff,0xff,0xff,0xff,0xff,0xff,0x07,0x44,0x44,0x44,0x44,
 0x44,0x44,0x44,0x44,0x44,0x44,0x44,0x44,0x44,0x44,0x44,0x44,0x44,0x44,0x44,
 0x44,0x44,0x44,0x44,0x44,0x44,0x04,0x44,0x44,0x44,0x44,0x44,0x44,0x44,0x44,
 0x44,0x44,0x44,0x44,0x44,0x44,0x44,0x44,0x44,0x44,0x44,0x44,0x44,0x44,0x44,
 0x44,0x44,0x04,0x04,0x40,0x00,0x04,0x40,0x00,0x04,0x40,0x00,0x04,0x40,0x00,
 0x04,0x40,0x00,0x04,0x40,0x00,0x04,0x40,0x00,0x04,0x40,0x00,0x04,0x00,0x04,
 0x40,0x00,0x04,0x40,0x00,0x04,0x40,0x00,0x04,0x40,0x00,0x04,0x40,0x00,0x04,
 0x40,0x00,0x04,0x40,0x00,0x04,0x40,0x00,0x00,0x00,0x04,0x00,0x00,0x00,0x40,
 0x00,0x00,0x00,0x00,0x04,0x00,0x00,0x00,0x40,0x00,0x00,0x00,0x00,0x04,0x00,
 0x00,0x00,0x40,0x00,0x00,0x00,0x04,0x00,0x00,0x00,0x40,0x00,0x00,0x00,0x00,
 0x04,0x00,0x00,0x00,0x40,0x00,0x00,0x00,0x00,0x04,0x00,0x00,0x00,0x40,0x00,
 0x00,0x00,0x00,0x00,0x00,0x00,0x00,0x00,0x00,0x00,0x00,0x00,0x00,0x00,0x00,
 0x00,0x00,0x00,0x00,0x00,0x00,0x00,0x00,0x00,0x00,0x00,0x00,0x00,0x00,0x00,
 0x00,0x00,0xe0,0x00,0x00,0x00,0x00,0x0e,0x00,0x00,0x00,0xe0,0x00,0x00,0x00,
 0x00,0x71,0x00,0x00,0x00,0x90,0x07,0x00,0x00,0xf0,0x00,0x00,0x00,0x10,0x01,
 0x00,0x00,0x00,0x11,0x00,0x00,0x00,0x10,0x01,0x00,0x00,0xc0,0x89,0x00,0x00,
 0x00,0x9c,0x08,0x00,0x00,0x10,0x01,0x00,0x00,0x00,0x01,0x00,0x00,0x00,0x01,
 0x00,0x00,0x00,0x10,0x01,0x00,0x00,0x00,0x81,0x00,0x00,0x00,0x90,0x00,0x00,
 0x00,0x10,0x01,0x00,0x00,0xc0,0x00,0x00,0x00,0x00,0x01,0x00,0x00,0x00,0x10,
 0x01,0x00,0x00,0x00,0x81,0x00,0x00,0x00,0x90,0x06,0x00,0x00,0x10,0x01,0x00,
 0x00,0x00,0x01,0x00,0x00,0x00,0x0f,0x00,0x00,0x00,0xe0,0x01,0x00,0x00,0x00,
 0x41,0x00,0x00,0x00,0x90,0x09,0x00,0x00,0xf0,0x0c,0x00,0x00,0x00,0x01,0x00,
 0x00,0x00,0x11,0x00,0x00,0x00,0x00,0x01,0x00,0x00,0x00,0x21,0x00,0x00,0x00,
 0x10,0x08,0x00,0x00,0x10,0x12,0x00,0x00,0x00,0x01,0x00,0x00,0x00,0x11,0x00,
 0x00,0x00,0x00,0x01,0x00,0x00,0x00,0x11,0x00,0x00,0x00,0x10,0x08,0x00,0x00,
 0x10,0x12,0x00,0x00,0x10,0x01,0x00,0x00,0x00,0x11,0x00,0x00,0x00,0x10,0x01,
 0x00,0x00,0x00,0x09,0x00,0x00,0x00,0x90,0x08,0x00,0x00,0x10,0x0c,0x00,0x00,
 0xe0,0x00,0x00,0x00,0x00,0x0e,0x00,0x00,0x00,0xe0,0x00,0x00,0x00,0x00,0xf9,
 0x00,0x00,0x00,0x10,0x07,0x00,0x00,0x00,0x00,0x00,0x00,0x00,0x00,0x00,0x00,
 0x00,0x00,0x00,0x00,0x00,0x00,0x00,0x00,0x00,0x00,0x00,0x00,0x00,0x00,0x00,
 0x00,0x00,0x00 };
