#define P20_width 205
#define P20_height 18
static unsigned char P20_bits[] = {
 0xfc,0xff,0xff,0xff,0xff,0xff,0xff,0xff,0xff,0xff,0xff,0xff,0xff,0xff,0xff,
 0xff,0xff,0xff,0xff,0xff,0xff,0xff,0xff,0xff,0xff,0x07,0x54,0x55,0x55,0x55,
 0x55,0x55,0x55,0x55,0x55,0x55,0x55,0x55,0x55,0x55,0x55,0x55,0x55,0x55,0x55,
 0x55,0x55,0x55,0x55,0x55,0x55,0x05,0x54,0x55,0x55,0x55,0x55,0x55,0x55,0x55,
 0x55,0x55,0x55,0x55,0x55,0x55,0x55,0x55,0x55,0x55,0x55,0x55,0x55,0x55,0x55,
 0x55,0x55,0x05,0x04,0x10,0x40,0x00,0x01,0x04,0x10,0x40,0x00,0x01,0x04,0x10,
 0x40,0x00,0x01,0x04,0x10,0x40,0x00,0x01,0x04,0x10,0x40,0x00,0x01,0x04,0x04,
 0x10,0x40,0x00,0x01,0x04,0x10,0x40,0x00,0x01,0x04,0x10,0x40,0x00,0x01,0x04,
 0x10,0x40,0x00,0x01,0x04,0x10,0x40,0x00,0x01,0x04,0x04,0x00,0x40,0x00,0x00,
 0x04,0x00,0x40,0x00,0x00,0x04,0x00,0x40,0x00,0x00,0x04,0x00,0x40,0x00,0x00,
 0x04,0x00,0x40,0x00,0x00,0x04,0x04,0x00,0x40,0x00,0x00,0x04,0x00,0x40,0x00,
 0x00,0x04,0x00,0x40,0x00,0x00,0x04,0x00,0x40,0x00,0x00,0x04,0x00,0x40,0x00,
 0x00,0x04,0x00,0x00,0x00,0x00,0x00,0x00,0x00,0x00,0x00,0x00,0x00,0x00,0x00,
 0x00,0x00,0x00,0x00,0x00,0x00,0x00,0x00,0x00,0x00,0x00,0x00,0x00,0x00,0x00,
 0xe0,0x00,0x00,0x08,0x00,0xe0,0x00,0x00,0x0e,0x00,0x88,0x03,0x00,0x71,0x00,
 0x10,0x04,0x00,0x71,0x00,0x10,0x07,0x00,0x00,0xf0,0x00,0x10,0x01,0x00,0x0c,
 0x00,0x10,0x01,0x00,0x11,0x00,0x4e,0x04,0xc0,0x89,0x00,0x1c,0x06,0xc0,0x89,
 0x00,0x9c,0x08,0x00,0x00,0x10,0x01,0x00,0x01,0x00,0x0c,0x00,0x10,0x00,0x00,
 0x11,0x00,0x48,0x04,0x00,0x81,0x00,0x10,0x06,0x00,0x09,0x00,0x90,0x08,0x00,
 0x00,0x10,0x01,0x00,0x01,0x00,0x0a,0x00,0x10,0x00,0x00,0x11,0x00,0x48,0x04,
 0x00,0x81,0x00,0x10,0x05,0x00,0x09,0x00,0x90,0x08,0x00,0x00,0x10,0x01,0x80,
 0x00,0x00,0x0a,0x00,0xf0,0x00,0x00,0x0e,0x00,0x48,0x04,0x00,0x41,0x00,0x10,
 0x05,0x00,0x79,0x00,0x10,0x07,0x00,0x00,0xf0,0x0c,0x40,0x00,0x00,0x09,0x00,
 0x10,0x01,0x00,0x11,0x00,0x48,0x04,0x00,0x21,0x00,0x90,0x04,0x00,0x89,0x00,
 0x90,0x08,0x00,0x00,0x10,0x12,0x20,0x00,0x00,0x1f,0x00,0x10,0x01,0x00,0x11,
 0x00,0x48,0x04,0x00,0x11,0x00,0x90,0x0f,0x00,0x89,0x00,0x90,0x08,0x00,0x00,
 0x10,0x12,0x10,0x00,0x00,0x08,0x00,0x10,0x01,0x00,0x11,0x00,0x48,0x04,0x00,
 0x09,0x00,0x10,0x04,0x00,0x89,0x00,0x90,0x08,0x00,0x00,0x10,0x0c,0xf0,0x01,
 0x00,0x08,0x00,0xe0,0x00,0x00,0x0e,0x00,0x88,0x03,0x00,0xf9,0x00,0x10,0x04,
 0x00,0x71,0x00,0x10,0x07,0x00,0x00,0x00,0x00,0x00,0x00,0x00,0x00,0x00,0x00,
 0x00,0x00,0x00,0x00,0x00,0x00,0x00,0x00,0x00,0x00,0x00,0x00,0x00,0x00,0x00,
 0x00,0x00,0x00 };
