#define P200_width 205
#define P200_height 18
static unsigned char P200_bits[] = {
   0xfc, 0xff, 0xff, 0xff, 0xff, 0xff, 0xff, 0xff, 0xff, 0xff, 0xff, 0xff,
   0xff, 0xff, 0xff, 0xff, 0xff, 0xff, 0xff, 0xff, 0xff, 0xff, 0xff, 0xff,
   0xff, 0x07, 0x54, 0x55, 0x55, 0x55, 0x55, 0x55, 0x55, 0x55, 0x55, 0x55,
   0x55, 0x55, 0x55, 0x55, 0x55, 0x55, 0x55, 0x55, 0x55, 0x55, 0x55, 0x55,
   0x55, 0x55, 0x55, 0x05, 0x54, 0x55, 0x55, 0x55, 0x55, 0x55, 0x55, 0x55,
   0x55, 0x55, 0x55, 0x55, 0x55, 0x55, 0x55, 0x55, 0x55, 0x55, 0x55, 0x55,
   0x55, 0x55, 0x55, 0x55, 0x55, 0x05, 0x04, 0x10, 0x40, 0x00, 0x01, 0x04,
   0x10, 0x40, 0x00, 0x01, 0x04, 0x10, 0x40, 0x00, 0x01, 0x04, 0x10, 0x40,
   0x00, 0x01, 0x04, 0x10, 0x40, 0x00, 0x01, 0x04, 0x04, 0x10, 0x40, 0x00,
   0x01, 0x04, 0x10, 0x40, 0x00, 0x01, 0x04, 0x10, 0x40, 0x00, 0x01, 0x04,
   0x10, 0x40, 0x00, 0x01, 0x04, 0x10, 0x40, 0x00, 0x01, 0x04, 0x04, 0x00,
   0x00, 0x00, 0x00, 0x04, 0x00, 0x00, 0x00, 0x00, 0x04, 0x00, 0x40, 0x00,
   0x00, 0x04, 0x00, 0x00, 0x00, 0x00, 0x04, 0x00, 0x00, 0x00, 0x00, 0x04,
   0x04, 0x00, 0x00, 0x00, 0x00, 0x04, 0x00, 0x00, 0x00, 0x00, 0x04, 0x00,
   0x40, 0x00, 0x00, 0x04, 0x00, 0x00, 0x00, 0x00, 0x04, 0x00, 0x00, 0x00,
   0x00, 0x04, 0x00, 0x00, 0x00, 0x00, 0x00, 0x00, 0x00, 0x00, 0x00, 0x00,
   0x00, 0x00, 0x00, 0x00, 0x00, 0x00, 0x00, 0x00, 0x00, 0x00, 0x00, 0x00,
   0x00, 0x00, 0x00, 0x00, 0x00, 0x00, 0x00, 0x00, 0x00, 0x71, 0x00, 0x00,
   0x00, 0xc0, 0x71, 0x00, 0x00, 0x00, 0x20, 0x8e, 0x03, 0x00, 0x00, 0x20,
   0x8e, 0x03, 0x00, 0x00, 0x00, 0x00, 0xf0, 0x00, 0x00, 0x00, 0x80, 0x89,
   0x00, 0x00, 0x00, 0x20, 0x8a, 0x00, 0x00, 0x00, 0x38, 0x51, 0x04, 0x00,
   0x00, 0x38, 0x51, 0x04, 0x00, 0x00, 0x00, 0x00, 0x10, 0x01, 0x00, 0x00,
   0x80, 0x89, 0x00, 0x00, 0x00, 0x20, 0x8a, 0x00, 0x00, 0x00, 0x20, 0x50,
   0x04, 0x00, 0x00, 0x20, 0x41, 0x04, 0x00, 0x00, 0x00, 0x00, 0x10, 0x01,
   0x00, 0x00, 0x40, 0x89, 0x00, 0x00, 0x00, 0x20, 0x8a, 0x00, 0x00, 0x00,
   0x20, 0x50, 0x04, 0x00, 0x00, 0x20, 0x41, 0x04, 0x00, 0x00, 0x00, 0x00,
   0x10, 0x01, 0x00, 0x00, 0x40, 0x89, 0x00, 0x00, 0x00, 0xc0, 0x89, 0x00,
   0x00, 0x00, 0x20, 0x48, 0x04, 0x00, 0x00, 0x20, 0x4f, 0x04, 0x00, 0x00,
   0x00, 0x00, 0xf0, 0x0c, 0x00, 0x00, 0x20, 0x89, 0x00, 0x00, 0x00, 0x20,
   0x8a, 0x00, 0x00, 0x00, 0x20, 0x44, 0x04, 0x00, 0x00, 0x20, 0x51, 0x04,
   0x00, 0x00, 0x00, 0x00, 0x10, 0x12, 0x00, 0x00, 0xe0, 0x8b, 0x00, 0x00,
   0x00, 0x20, 0x8a, 0x00, 0x00, 0x00, 0x20, 0x42, 0x04, 0x00, 0x00, 0x20,
   0x51, 0x04, 0x00, 0x00, 0x00, 0x00, 0x10, 0x12, 0x00, 0x00, 0x00, 0x89,
   0x00, 0x00, 0x00, 0x20, 0x8a, 0x00, 0x00, 0x00, 0x20, 0x41, 0x04, 0x00,
   0x00, 0x20, 0x51, 0x04, 0x00, 0x00, 0x00, 0x00, 0x10, 0x0c, 0x00, 0x00,
   0x00, 0x71, 0x00, 0x00, 0x00, 0xc0, 0x71, 0x00, 0x00, 0x00, 0x20, 0x9f,
   0x03, 0x00, 0x00, 0x20, 0x8e, 0x03, 0x00, 0x00, 0x00, 0x00, 0x00, 0x00,
   0x00, 0x00, 0x00, 0x00, 0x00, 0x00, 0x00, 0x00, 0x00, 0x00, 0x00, 0x00,
   0x00, 0x00, 0x00, 0x00, 0x00, 0x00, 0x00, 0x00, 0x00, 0x00, 0x00, 0x00 };
