#define P200log_width 205
#define P200log_height 18
static unsigned char P200log_bits[] = {
   0xfc, 0xff, 0xff, 0xff, 0xff, 0xff, 0xff, 0xff, 0xff, 0xff, 0xff, 0xff,
   0xff, 0xff, 0xff, 0xff, 0xff, 0xff, 0xff, 0xff, 0xff, 0xff, 0xff, 0xff,
   0xff, 0x07, 0x04, 0x00, 0x41, 0x44, 0x04, 0x82, 0x10, 0x22, 0x02, 0x82,
   0x20, 0x08, 0x42, 0x00, 0x01, 0x01, 0x01, 0x81, 0x40, 0x20, 0x08, 0x82,
   0x20, 0x84, 0x20, 0x04, 0x04, 0x00, 0x41, 0x44, 0x04, 0x82, 0x10, 0x22,
   0x02, 0x82, 0x20, 0x08, 0x42, 0x00, 0x01, 0x01, 0x01, 0x81, 0x40, 0x20,
   0x08, 0x82, 0x20, 0x84, 0x20, 0x04, 0x04, 0x00, 0x41, 0x44, 0x04, 0x82,
   0x10, 0x22, 0x02, 0x82, 0x20, 0x08, 0x42, 0x00, 0x01, 0x01, 0x01, 0x81,
   0x40, 0x20, 0x08, 0x82, 0x20, 0x84, 0x20, 0x04, 0x04, 0x00, 0x41, 0x44,
   0x04, 0x80, 0x00, 0x02, 0x02, 0x80, 0x00, 0x08, 0x40, 0x00, 0x01, 0x01,
   0x01, 0x81, 0x40, 0x20, 0x08, 0x82, 0x20, 0x84, 0x20, 0x04, 0x04, 0x00,
   0x00, 0x00, 0x04, 0x80, 0x00, 0x02, 0x02, 0x80, 0x00, 0x08, 0x40, 0x00,
   0x00, 0x00, 0x00, 0x80, 0x00, 0x00, 0x00, 0x80, 0x00, 0x00, 0x00, 0x04,
   0x04, 0x00, 0x00, 0x00, 0x04, 0x00, 0x00, 0x00, 0x00, 0x00, 0x00, 0x00,
   0x40, 0x00, 0x00, 0x00, 0x00, 0x80, 0x00, 0x00, 0x00, 0x80, 0x00, 0x00,
   0x00, 0x04, 0x00, 0x00, 0x00, 0x00, 0x00, 0x00, 0x00, 0x00, 0x00, 0x00,
   0x00, 0x00, 0x00, 0x00, 0x00, 0x00, 0x00, 0x00, 0x00, 0x00, 0x00, 0x00,
   0x00, 0x00, 0x00, 0x00, 0x00, 0x00, 0x00, 0x00, 0x1f, 0x00, 0x00, 0xe0,
   0x38, 0x00, 0x00, 0x00, 0x3e, 0x07, 0x00, 0x00, 0x00, 0x71, 0x1c, 0x00,
   0x00, 0xe4, 0x73, 0x00, 0x00, 0x00, 0xf0, 0x00, 0x00, 0x00, 0x01, 0x00,
   0x00, 0x10, 0x45, 0x00, 0x00, 0x00, 0x82, 0x08, 0x00, 0x00, 0xc0, 0x89,
   0x22, 0x00, 0x00, 0x27, 0x88, 0x00, 0x00, 0x00, 0x10, 0x01, 0x00, 0x00,
   0x01, 0x00, 0x00, 0x00, 0x45, 0x00, 0x00, 0x00, 0x82, 0x08, 0x00, 0x00,
   0x00, 0x89, 0x22, 0x00, 0x00, 0x24, 0x88, 0x00, 0x00, 0x00, 0x10, 0x01,
   0x00, 0x00, 0x0e, 0x00, 0x00, 0x00, 0x45, 0x00, 0x00, 0x00, 0x9c, 0x08,
   0x00, 0x00, 0x00, 0x89, 0x22, 0x00, 0x00, 0xc4, 0x89, 0x00, 0x00, 0x00,
   0x10, 0x01, 0x00, 0x00, 0x10, 0x00, 0x00, 0x80, 0x44, 0x00, 0x00, 0x00,
   0xa0, 0x08, 0x00, 0x00, 0x00, 0x89, 0x22, 0x00, 0x00, 0x04, 0x8a, 0x00,
   0x00, 0x00, 0xf0, 0x0c, 0x00, 0x00, 0x10, 0x00, 0x00, 0x40, 0x44, 0x00,
   0x00, 0x00, 0xa0, 0x08, 0x00, 0x00, 0x00, 0x89, 0x22, 0x00, 0x00, 0x04,
   0x8a, 0x00, 0x00, 0x00, 0x10, 0x12, 0x00, 0x00, 0x10, 0x00, 0x00, 0x20,
   0x44, 0x00, 0x00, 0x00, 0xa0, 0x08, 0x00, 0x00, 0x00, 0x89, 0x22, 0x00,
   0x00, 0x04, 0x8a, 0x00, 0x00, 0x00, 0x10, 0x12, 0x00, 0x00, 0x11, 0x00,
   0x00, 0x10, 0x44, 0x00, 0x00, 0x00, 0xa2, 0x08, 0x00, 0x00, 0x00, 0x89,
   0x22, 0x00, 0x00, 0x24, 0x8a, 0x00, 0x00, 0x00, 0x10, 0x0c, 0x00, 0x00,
   0x0e, 0x00, 0x00, 0xf0, 0x39, 0x00, 0x00, 0x00, 0x1c, 0x07, 0x00, 0x00,
   0x00, 0x71, 0x1c, 0x00, 0x00, 0xc4, 0x71, 0x00, 0x00, 0x00, 0x00, 0x00,
   0x00, 0x00, 0x00, 0x00, 0x00, 0x00, 0x00, 0x00, 0x00, 0x00, 0x00, 0x00,
   0x00, 0x00, 0x00, 0x00, 0x00, 0x00, 0x00, 0x00, 0x00, 0x00, 0x00, 0x00 };
