#define S60_width 205
#define S60_height 18
static unsigned char S60_bits[] = {
   0x00, 0x00, 0x00, 0x00, 0x00, 0x00, 0x00, 0x00, 0x00, 0x00, 0x00, 0x00,
   0x00, 0x00, 0x00, 0x00, 0x00, 0x00, 0x00, 0x00, 0x00, 0x00, 0x00, 0x00,
   0x00, 0x00, 0x00, 0x00, 0x00, 0x80, 0xc3, 0x01, 0x00, 0x00, 0x1c, 0x0e,
   0x00, 0x00, 0x0e, 0x07, 0x00, 0x00, 0x1c, 0x0e, 0x00, 0x00, 0x00, 0x71,
   0x00, 0x00, 0x1c, 0x07, 0x00, 0x00, 0x00, 0x40, 0x24, 0x02, 0x00, 0x00,
   0x22, 0x11, 0x00, 0x00, 0x91, 0x08, 0x00, 0x00, 0x22, 0x11, 0x00, 0x00,
   0x80, 0x89, 0x00, 0x00, 0xa2, 0x08, 0x00, 0x00, 0x00, 0x40, 0x00, 0x02,
   0x00, 0x00, 0x02, 0x01, 0x00, 0x00, 0x81, 0x08, 0x00, 0x00, 0x20, 0x11,
   0x00, 0x00, 0x80, 0x89, 0x00, 0x20, 0x82, 0x08, 0x00, 0x00, 0x00, 0x40,
   0x00, 0x02, 0x00, 0x00, 0x02, 0x01, 0x00, 0x00, 0x81, 0x08, 0x00, 0x40,
   0x20, 0x11, 0x00, 0x00, 0x42, 0x89, 0x00, 0x20, 0x82, 0x08, 0x00, 0x00,
   0x00, 0x80, 0x83, 0x01, 0x00, 0x00, 0x1c, 0x0f, 0x00, 0x00, 0x0e, 0x0f,
   0x00, 0x40, 0x10, 0x11, 0x00, 0x00, 0x42, 0x89, 0x00, 0xf8, 0x9e, 0x08,
   0x00, 0x00, 0x00, 0x00, 0x04, 0x02, 0x00, 0x00, 0x20, 0x11, 0x00, 0x00,
   0x10, 0x08, 0x00, 0xf0, 0x09, 0x11, 0x00, 0x80, 0x2f, 0x89, 0x00, 0x20,
   0xa2, 0x08, 0x00, 0x00, 0x00, 0x00, 0x04, 0x02, 0x00, 0x00, 0x20, 0x11,
   0x00, 0x00, 0x10, 0x08, 0x00, 0x40, 0x04, 0x11, 0x00, 0x00, 0xe2, 0x8b,
   0x00, 0x20, 0xa2, 0x08, 0x00, 0x00, 0x00, 0x40, 0x24, 0x02, 0x00, 0x00,
   0x22, 0x11, 0x00, 0x00, 0x91, 0x08, 0x00, 0x40, 0x02, 0x11, 0x00, 0x00,
   0x02, 0x89, 0x00, 0x00, 0xa2, 0x08, 0x00, 0x00, 0x00, 0x80, 0xc3, 0x01,
   0x00, 0x00, 0x1c, 0x0e, 0x00, 0x00, 0x0e, 0x07, 0x00, 0x00, 0x3e, 0x0e,
   0x00, 0x00, 0x00, 0x71, 0x00, 0x00, 0x1c, 0x07, 0x00, 0x00, 0x00, 0x00,
   0x00, 0x00, 0x00, 0x00, 0x00, 0x00, 0x00, 0x00, 0x00, 0x00, 0x00, 0x00,
   0x00, 0x00, 0x00, 0x00, 0x00, 0x00, 0x00, 0x00, 0x00, 0x00, 0x04, 0x00,
   0x00, 0x00, 0x10, 0x00, 0x00, 0x00, 0x80, 0x00, 0x00, 0x00, 0x40, 0x00,
   0x00, 0x00, 0x80, 0x00, 0x00, 0x00, 0x00, 0x04, 0x00, 0x00, 0x00, 0x04,
   0x04, 0x00, 0x00, 0x00, 0x10, 0x00, 0x00, 0x00, 0x80, 0x00, 0x00, 0x00,
   0x40, 0x00, 0x00, 0x00, 0x80, 0x00, 0x00, 0x00, 0x00, 0x04, 0x00, 0x00,
   0x00, 0x04, 0x04, 0x20, 0x00, 0x02, 0x10, 0x00, 0x01, 0x08, 0x80, 0x00,
   0x02, 0x08, 0x40, 0x00, 0x40, 0x00, 0x80, 0x00, 0x00, 0x01, 0x00, 0x04,
   0x00, 0x08, 0x00, 0x04, 0x04, 0x20, 0x00, 0x02, 0x10, 0x00, 0x01, 0x08,
   0x80, 0x00, 0x02, 0x08, 0x40, 0x00, 0x40, 0x00, 0x80, 0x00, 0x00, 0x01,
   0x00, 0x04, 0x00, 0x08, 0x00, 0x04, 0x04, 0x20, 0x00, 0x02, 0x10, 0x00,
   0x01, 0x08, 0x80, 0x00, 0x02, 0x08, 0x40, 0x00, 0x40, 0x00, 0x80, 0x00,
   0x00, 0x01, 0x00, 0x04, 0x00, 0x08, 0x00, 0x04, 0x04, 0x20, 0x00, 0x02,
   0x10, 0x00, 0x01, 0x08, 0x80, 0x00, 0x02, 0x08, 0x40, 0x00, 0x40, 0x00,
   0x80, 0x00, 0x00, 0x01, 0x00, 0x04, 0x00, 0x08, 0x00, 0x04, 0xfc, 0xff,
   0xff, 0xff, 0xff, 0xff, 0xff, 0xff, 0xff, 0xff, 0xff, 0xff, 0xff, 0xff,
   0xff, 0xff, 0xff, 0xff, 0xff, 0xff, 0xff, 0xff, 0xff, 0xff, 0xff, 0x07 };
