#define S60_width 205
#define S60_height 18
static unsigned char S60_bits[] = {
   0x00, 0x00, 0x00, 0x00, 0x00, 0x00, 0x00, 0x00, 0x00, 0x00, 0x00, 0x00,
   0x00, 0x00, 0x00, 0x00, 0x00, 0x00, 0x00, 0x00, 0x00, 0x00, 0x00, 0x00,
   0x00, 0x00, 0x00, 0x00, 0x00, 0x38, 0x1c, 0x00, 0x00, 0x0e, 0x07, 0x00,
   0x80, 0xc3, 0x01, 0x00, 0xe0, 0x70, 0x00, 0x00, 0x40, 0x1c, 0x00, 0x80,
   0xe3, 0x00, 0x00, 0x00, 0x00, 0x00, 0x00, 0x44, 0x22, 0x00, 0x00, 0x91,
   0x08, 0x00, 0x40, 0x24, 0x02, 0x00, 0x10, 0x89, 0x00, 0x00, 0x60, 0x22,
   0x00, 0x40, 0x14, 0x01, 0x00, 0x00, 0x00, 0x00, 0x00, 0x04, 0x20, 0x00,
   0x00, 0x81, 0x00, 0x00, 0x40, 0x20, 0x02, 0x00, 0x00, 0x89, 0x00, 0x00,
   0x60, 0x22, 0x00, 0x40, 0x10, 0x01, 0x00, 0x00, 0x00, 0x00, 0x00, 0x04,
   0x20, 0x00, 0x00, 0x81, 0x00, 0x00, 0x40, 0x20, 0x02, 0x00, 0x02, 0x89,
   0x00, 0x80, 0x50, 0x22, 0x80, 0x40, 0x10, 0x01, 0x00, 0x00, 0x00, 0x00,
   0x00, 0x38, 0x18, 0x00, 0x00, 0x8e, 0x07, 0x00, 0x80, 0xc3, 0x03, 0x00,
   0x82, 0x88, 0x00, 0x80, 0x50, 0x22, 0x80, 0xc0, 0x13, 0x01, 0x00, 0x00,
   0x00, 0x00, 0x00, 0x40, 0x20, 0x00, 0x00, 0x90, 0x08, 0x00, 0x00, 0x04,
   0x02, 0x80, 0x4f, 0x88, 0x00, 0xe0, 0x4b, 0x22, 0xe0, 0x47, 0x14, 0x01,
   0x00, 0x00, 0x00, 0x00, 0x00, 0x40, 0x20, 0x00, 0x00, 0x90, 0x08, 0x00,
   0x00, 0x04, 0x02, 0x00, 0x22, 0x88, 0x00, 0x80, 0xf8, 0x22, 0x80, 0x40,
   0x14, 0x01, 0x00, 0x00, 0x00, 0x00, 0x00, 0x44, 0x22, 0x00, 0x00, 0x91,
   0x08, 0x00, 0x40, 0x24, 0x02, 0x00, 0x12, 0x88, 0x00, 0x80, 0x40, 0x22,
   0x80, 0x40, 0x14, 0x01, 0x00, 0x00, 0x00, 0x00, 0x00, 0x38, 0x1c, 0x00,
   0x00, 0x0e, 0x07, 0x00, 0x80, 0xc3, 0x01, 0x00, 0xf0, 0x71, 0x00, 0x00,
   0x40, 0x1c, 0x00, 0x80, 0xe3, 0x00, 0x00, 0x00, 0x00, 0x00, 0x00, 0x00,
   0x00, 0x00, 0x00, 0x00, 0x00, 0x00, 0x00, 0x00, 0x00, 0x00, 0x00, 0x00,
   0x00, 0x00, 0x00, 0x00, 0x00, 0x00, 0x00, 0x00, 0x00, 0x00, 0x04, 0x00,
   0x00, 0x00, 0x01, 0x00, 0x00, 0x40, 0x00, 0x00, 0x00, 0x10, 0x00, 0x00,
   0x00, 0x04, 0x00, 0x00, 0x00, 0x01, 0x00, 0x00, 0x10, 0x00, 0x00, 0x00,
   0x04, 0x00, 0x00, 0x00, 0x01, 0x00, 0x00, 0x40, 0x00, 0x00, 0x00, 0x10,
   0x00, 0x00, 0x00, 0x04, 0x00, 0x00, 0x00, 0x01, 0x00, 0x00, 0x10, 0x00,
   0x00, 0x00, 0x04, 0x00, 0x00, 0x00, 0x01, 0x00, 0x00, 0x40, 0x00, 0x00,
   0x00, 0x10, 0x00, 0x00, 0x00, 0x04, 0x00, 0x00, 0x00, 0x01, 0x00, 0x00,
   0x10, 0x00, 0x00, 0x00, 0x04, 0x10, 0x40, 0x00, 0x01, 0x04, 0x10, 0x40,
   0x00, 0x01, 0x04, 0x10, 0x40, 0x00, 0x01, 0x04, 0x10, 0x40, 0x00, 0x01,
   0x04, 0x10, 0x10, 0x00, 0x00, 0x00, 0x04, 0x10, 0x40, 0x00, 0x01, 0x04,
   0x10, 0x40, 0x00, 0x01, 0x04, 0x10, 0x40, 0x00, 0x01, 0x04, 0x10, 0x40,
   0x00, 0x01, 0x04, 0x10, 0x10, 0x00, 0x00, 0x00, 0x04, 0x10, 0x40, 0x00,
   0x01, 0x04, 0x10, 0x40, 0x00, 0x01, 0x04, 0x10, 0x40, 0x00, 0x01, 0x04,
   0x10, 0x40, 0x00, 0x01, 0x04, 0x10, 0x10, 0x00, 0x00, 0x00, 0xfc, 0xff,
   0xff, 0xff, 0xff, 0xff, 0xff, 0xff, 0xff, 0xff, 0xff, 0xff, 0xff, 0xff,
   0xff, 0xff, 0xff, 0xff, 0xff, 0xff, 0xff, 0xff, 0x1f, 0x00, 0x00, 0x00 };
