#define volts_width 205
#define volts_height 18
static unsigned char volts_bits[] = {
   0xfc, 0xff, 0xff, 0xff, 0xff, 0xff, 0xff, 0xff, 0xff, 0xff, 0xff, 0xff,
   0xff, 0xff, 0xff, 0xff, 0xff, 0xff, 0xff, 0xff, 0xff, 0xff, 0xff, 0xff,
   0xff, 0x07, 0x54, 0x55, 0x55, 0x55, 0x55, 0x55, 0x55, 0x55, 0x55, 0x55,
   0x55, 0x55, 0x55, 0x55, 0x55, 0x55, 0x55, 0x55, 0x55, 0x55, 0x55, 0x55,
   0x55, 0x55, 0x55, 0x05, 0x54, 0x55, 0x55, 0x55, 0x55, 0x55, 0x55, 0x55,
   0x55, 0x55, 0x55, 0x55, 0x55, 0x55, 0x55, 0x55, 0x55, 0x55, 0x55, 0x55,
   0x55, 0x55, 0x55, 0x55, 0x55, 0x05, 0x04, 0x10, 0x40, 0x00, 0x01, 0x04,
   0x10, 0x40, 0x00, 0x01, 0x04, 0x10, 0x40, 0x00, 0x01, 0x04, 0x10, 0x40,
   0x00, 0x01, 0x04, 0x10, 0x40, 0x00, 0x01, 0x04, 0x04, 0x10, 0x40, 0x00,
   0x01, 0x04, 0x10, 0x40, 0x00, 0x01, 0x04, 0x10, 0x40, 0x00, 0x01, 0x04,
   0x10, 0x40, 0x00, 0x01, 0x04, 0x10, 0x40, 0x00, 0x01, 0x04, 0x04, 0x00,
   0x40, 0x00, 0x00, 0x04, 0x00, 0x40, 0x00, 0x00, 0x04, 0x00, 0x40, 0x00,
   0x00, 0x04, 0x00, 0x40, 0x00, 0x00, 0x04, 0x00, 0x40, 0x00, 0x00, 0x04,
   0x04, 0x00, 0x00, 0x00, 0x00, 0x00, 0x00, 0x40, 0x00, 0x00, 0x04, 0x00,
   0x40, 0x00, 0x00, 0x04, 0x00, 0x40, 0x00, 0x00, 0x04, 0x00, 0x40, 0x00,
   0x00, 0x04, 0x00, 0x00, 0x00, 0x00, 0x00, 0x00, 0x00, 0x00, 0x00, 0x00,
   0x00, 0x00, 0x00, 0x00, 0x00, 0x00, 0x00, 0x00, 0x00, 0x00, 0x00, 0x00,
   0x00, 0x00, 0x00, 0x00, 0x44, 0x00, 0x00, 0x00, 0x00, 0x0f, 0x00, 0x00,
   0x00, 0x80, 0x70, 0x00, 0x00, 0x00, 0x80, 0x38, 0x00, 0x00, 0x00, 0x00,
   0x41, 0x00, 0x00, 0x00, 0x00, 0x00, 0x44, 0x46, 0x3e, 0x03, 0x80, 0x10,
   0x00, 0x00, 0x00, 0xc0, 0x88, 0x00, 0x00, 0x00, 0xc0, 0x44, 0x00, 0x00,
   0x00, 0x80, 0x61, 0x00, 0x00, 0x00, 0x00, 0x00, 0x44, 0x49, 0x88, 0x04,
   0x80, 0x10, 0x00, 0x00, 0x00, 0x80, 0x88, 0x00, 0x00, 0x00, 0x80, 0x44,
   0x00, 0x00, 0x00, 0x00, 0x51, 0x00, 0x00, 0x00, 0x00, 0x00, 0x28, 0x49,
   0x88, 0x00, 0x00, 0x0f, 0x00, 0x00, 0x00, 0x80, 0x88, 0x00, 0x00, 0x00,
   0x80, 0x40, 0x00, 0x00, 0x00, 0x00, 0x51, 0x00, 0x00, 0x00, 0x00, 0x00,
   0x28, 0x49, 0x08, 0x01, 0x80, 0x10, 0x00, 0x00, 0x00, 0x80, 0x88, 0x00,
   0x00, 0x00, 0x80, 0x30, 0x00, 0x00, 0x00, 0x00, 0x49, 0x00, 0x00, 0x00,
   0x00, 0x00, 0x28, 0x49, 0x08, 0x02, 0x80, 0x10, 0x00, 0x00, 0x00, 0x80,
   0x88, 0x00, 0x00, 0x00, 0x80, 0x18, 0x00, 0x00, 0x00, 0x00, 0x45, 0x00,
   0x00, 0x00, 0x00, 0x00, 0x10, 0x49, 0x08, 0x04, 0x80, 0x10, 0x00, 0x00,
   0x00, 0x80, 0x88, 0x00, 0x00, 0x00, 0x80, 0x08, 0x00, 0x00, 0x00, 0x00,
   0x7d, 0x00, 0x00, 0x00, 0x00, 0x00, 0x10, 0x4d, 0x88, 0x04, 0x80, 0x10,
   0x00, 0x00, 0x00, 0x80, 0x88, 0x00, 0x00, 0x00, 0x80, 0x04, 0x00, 0x00,
   0x00, 0x00, 0x41, 0x00, 0x00, 0x00, 0x00, 0x00, 0x10, 0xc6, 0x09, 0x03,
   0x00, 0x0f, 0x00, 0x00, 0x00, 0x80, 0x70, 0x00, 0x00, 0x00, 0x80, 0x7c,
   0x00, 0x00, 0x00, 0x00, 0x41, 0x00, 0x00, 0x00, 0x00, 0x00, 0x00, 0x00,
   0x00, 0x00, 0x00, 0x00, 0x00, 0x00, 0x00, 0x00, 0x00, 0x00, 0x00, 0x00,
   0x00, 0x00, 0x00, 0x00, 0x00, 0x00, 0x00, 0x00, 0x00, 0x00, 0x00, 0x00 };
