#define volts50_width 205
#define volts50_height 18
static unsigned char volts50_bits[] = {
 0xfc,0xff,0xff,0xff,0xff,0xff,0xff,0xff,0xff,0xff,0xff,0xff,0xff,0xff,0xff,
 0xff,0xff,0xff,0xff,0xff,0xff,0xff,0xff,0xff,0xff,0x07,0x54,0x55,0x55,0x55,
 0x55,0x55,0x55,0x55,0x55,0x55,0x55,0x55,0x55,0x55,0x55,0x55,0x55,0x55,0x55,
 0x55,0x55,0x55,0x55,0x55,0x55,0x05,0x54,0x55,0x55,0x55,0x55,0x55,0x55,0x55,
 0x55,0x55,0x55,0x55,0x55,0x55,0x55,0x55,0x55,0x55,0x55,0x55,0x55,0x55,0x55,
 0x55,0x55,0x05,0x04,0x10,0x40,0x00,0x01,0x04,0x10,0x40,0x00,0x01,0x04,0x10,
 0x40,0x00,0x01,0x04,0x10,0x40,0x00,0x01,0x04,0x10,0x40,0x00,0x01,0x04,0x04,
 0x10,0x40,0x00,0x01,0x04,0x10,0x40,0x00,0x01,0x04,0x10,0x40,0x00,0x01,0x04,
 0x10,0x40,0x00,0x01,0x04,0x10,0x40,0x00,0x01,0x04,0x04,0x00,0x40,0x00,0x00,
 0x04,0x00,0x40,0x00,0x00,0x04,0x00,0x40,0x00,0x00,0x04,0x00,0x40,0x00,0x00,
 0x04,0x00,0x40,0x00,0x00,0x04,0x04,0x00,0x00,0x00,0x00,0x00,0x00,0x40,0x00,
 0x00,0x04,0x00,0x40,0x00,0x00,0x04,0x00,0x40,0x00,0x00,0x04,0x00,0x40,0x00,
 0x00,0x04,0x00,0x00,0x00,0x00,0x00,0x00,0x00,0x00,0x00,0x00,0x00,0x00,0x00,
 0x00,0x00,0x00,0x00,0x00,0x00,0x00,0x00,0x00,0x00,0x00,0x00,0x00,0x44,0x00,
 0x00,0x00,0x00,0xf1,0x00,0x00,0x00,0x80,0x70,0x00,0x00,0x00,0x80,0xe3,0x00,
 0x00,0x00,0x80,0x43,0x00,0x00,0x00,0x00,0x00,0x44,0x46,0x3e,0x03,0x80,0x09,
 0x01,0x00,0x00,0xc0,0x88,0x00,0x00,0x00,0x40,0x14,0x01,0x00,0x00,0x40,0x64,
 0x00,0x00,0x00,0x00,0x00,0x44,0x49,0x88,0x04,0x40,0x09,0x01,0x00,0x00,0xa0,
 0x08,0x01,0x00,0x00,0x40,0x10,0x01,0x00,0x00,0x40,0x40,0x00,0x00,0x00,0x00,
 0x00,0x28,0x49,0x88,0x00,0x40,0xf1,0x00,0x00,0x00,0xa0,0x08,0x01,0x00,0x00,
 0x40,0x10,0x01,0x00,0x00,0x40,0x40,0x00,0x00,0x00,0x00,0x00,0x28,0x49,0x08,
 0x01,0x20,0x09,0x01,0x00,0x00,0x90,0x70,0x01,0x00,0x00,0x80,0x13,0x01,0x00,
 0x00,0x80,0x43,0x00,0x00,0x00,0x00,0x00,0x28,0x49,0x08,0x02,0x10,0x09,0x01,
 0x00,0x00,0x88,0x00,0x01,0x00,0x00,0x00,0x14,0x01,0x00,0x00,0x00,0x44,0x00,
 0x00,0x00,0x00,0x00,0x10,0x49,0x08,0x04,0xf0,0x09,0x01,0x00,0x00,0xf8,0x00,
 0x01,0x00,0x00,0x00,0x14,0x01,0x00,0x00,0x00,0x44,0x00,0x00,0x00,0x00,0x00,
 0x10,0x4d,0x88,0x04,0x00,0x09,0x01,0x00,0x00,0x80,0x08,0x01,0x00,0x00,0x40,
 0x14,0x01,0x00,0x00,0x40,0x44,0x00,0x00,0x00,0x00,0x00,0x10,0xc6,0x09,0x03,
 0x00,0xf1,0x00,0x00,0x00,0x80,0xf0,0x00,0x00,0x00,0x80,0xe3,0x00,0x00,0x00,
 0x80,0x43,0x00,0x00,0x00,0x00,0x00,0x00,0x00,0x00,0x00,0x00,0x00,0x00,0x00,
 0x00,0x00,0x00,0x00,0x00,0x00,0x00,0x00,0x00,0x00,0x00,0x00,0x00,0x00,0x00,
 0x00,0x00,0x00 };
