/* XPM */
static char * flrig_xpm[] = {
"64 64 525 2",
"  	c #2F2F2F",
". 	c #303030",
"+ 	c #313131",
"@ 	c #323232",
"# 	c #2E2E2E",
"$ 	c #333333",
"% 	c #434343",
"& 	c #373737",
"* 	c #383838",
"= 	c #363636",
"- 	c #515151",
"; 	c #2C2C2C",
"> 	c #777777",
", 	c #404040",
"' 	c #454545",
") 	c #2B2B2B",
"! 	c #3F3F3F",
"~ 	c #4F4F4F",
"{ 	c #2A2A2A",
"] 	c #393939",
"^ 	c #525252",
"/ 	c #4D4D4D",
"( 	c #6A6A6A",
"_ 	c #474747",
": 	c #5F5F5F",
"< 	c #464646",
"[ 	c #4A4A4A",
"} 	c #3A3A3A",
"| 	c #272727",
"1 	c #565656",
"2 	c #3C3C3C",
"3 	c #444444",
"4 	c #4B4B4B",
"5 	c #7F7F7F",
"6 	c #838383",
"7 	c #252525",
"8 	c #242424",
"9 	c #B2B2B2",
"0 	c #6E6E6E",
"a 	c #818181",
"b 	c #3D3D3D",
"c 	c #696969",
"d 	c #292929",
"e 	c #9C9C9C",
"f 	c #5C5C5C",
"g 	c #7E7E7E",
"h 	c #282829",
"i 	c #9A9A9A",
"j 	c #919191",
"k 	c #595959",
"l 	c #565858",
"m 	c #626262",
"n 	c #636363",
"o 	c #A8A8A8",
"p 	c #222222",
"q 	c #969696",
"r 	c #5F6060",
"s 	c #585858",
"t 	c #787878",
"u 	c #929292",
"v 	c #232323",
"w 	c #202020",
"x 	c #A6A6A6",
"y 	c #757575",
"z 	c #939393",
"A 	c #2B2B2C",
"B 	c #8C8C8C",
"C 	c #7A7A7A",
"D 	c #717272",
"E 	c #414141",
"F 	c #4A4B4B",
"G 	c #2B2C2C",
"H 	c #39393A",
"I 	c #444545",
"J 	c #353535",
"K 	c #3E3E3E",
"L 	c #393A3A",
"M 	c #474746",
"N 	c #2A2B2A",
"O 	c #474847",
"P 	c #2C2C2E",
"Q 	c #A4924C",
"R 	c #A4924D",
"S 	c #A6924E",
"T 	c #A4924F",
"U 	c #A49151",
"V 	c #A49152",
"W 	c #A49153",
"X 	c #A49154",
"Y 	c #A49155",
"Z 	c #A49156",
"` 	c #A48F58",
" .	c #A68F59",
"..	c #A48F5A",
"+.	c #A68F5B",
"@.	c #A48E5B",
"#.	c #A48E5C",
"$.	c #A48F59",
"%.	c #A69158",
"&.	c #A69156",
"*.	c #A69155",
"=.	c #A69154",
"-.	c #A69153",
";.	c #A49252",
">.	c #A6924F",
",.	c #A6924D",
"'.	c #A6934D",
").	c #A6934B",
"!.	c #A6934A",
"~.	c #A49447",
"{.	c #A69346",
"].	c #A69345",
"^.	c #A69443",
"/.	c #A49443",
"(.	c #A69543",
"_.	c #A69643",
":.	c #A79643",
"<.	c #A69641",
"[.	c #A79543",
"}.	c #A49641",
"|.	c #A49544",
"1.	c #A79844",
"2.	c #FFF107",
"3.	c #FFEF13",
"4.	c #FFE63D",
"5.	c #FFC55C",
"6.	c #6D5433",
"7.	c #EECC6B",
"8.	c #EDBB67",
"9.	c #050505",
"0.	c #FFE03C",
"a.	c #FFEF12",
"b.	c #FFE34D",
"c.	c #FFD668",
"d.	c #F2BF4E",
"e.	c #F7BF63",
"f.	c #F9BF4B",
"g.	c #B88F43",
"h.	c #B98F4D",
"i.	c #FFE735",
"j.	c #CB9D5A",
"k.	c #B48546",
"l.	c #D8A45C",
"m.	c #AB7C4A",
"n.	c #FFE73D",
"o.	c #C29A45",
"p.	c #C09B47",
"q.	c #A88B54",
"r.	c #A08558",
"s.	c #BC944E",
"t.	c #BB944C",
"u.	c #AB8C58",
"v.	c #C09C62",
"w.	c #C29D5F",
"x.	c #C3995B",
"y.	c #C39B62",
"z.	c #C2945B",
"A.	c #CBA76B",
"B.	c #BF9F67",
"C.	c #CDA76F",
"D.	c #CBA771",
"E.	c #E6B76D",
"F.	c #FFEB3D",
"G.	c #FFEF07",
"H.	c #FFEE1B",
"I.	c #BB914F",
"J.	c #B29258",
"K.	c #E0AD61",
"L.	c #E0AB62",
"M.	c #E1AD61",
"N.	c #B9A373",
"O.	c #EEC071",
"P.	c #F0BF69",
"Q.	c #D6B675",
"R.	c #C3A773",
"S.	c #E9B968",
"T.	c #FCC676",
"U.	c #EDBB78",
"V.	c #E0B67A",
"W.	c #D4B075",
"X.	c #DFB26D",
"Y.	c #E6AB56",
"Z.	c #967648",
"`.	c #BD914F",
" +	c #B68A4E",
".+	c #CF9B55",
"++	c #A97C4A",
"@+	c #F6B662",
"#+	c #FFCB61",
"$+	c #E4B75F",
"%+	c #E9C46D",
"&+	c #DBAF58",
"*+	c #FFD460",
"=+	c #E7B654",
"-+	c #C7AD4E",
";+	c #C6A438",
">+	c #F4B959",
",+	c #CFA85C",
"'+	c #D4AF61",
")+	c #D3A758",
"!+	c #FCC655",
"~+	c #D4A84E",
"{+	c #EFBF2E",
"]+	c #EAC63D",
"^+	c #C49C35",
"/+	c #6F5330",
"(+	c #FFD63F",
"_+	c #FFF40D",
":+	c #FFF208",
"<+	c #FFF006",
"[+	c #FFF007",
"}+	c #FFF408",
"|+	c #241E1C",
"1+	c #1E1716",
"2+	c #F5B96B",
"3+	c #C9984E",
"4+	c #D6B771",
"5+	c #B9933C",
"6+	c #D2A73E",
"7+	c #D2A73C",
"8+	c #D2A839",
"9+	c #E0B93F",
"0+	c #A88B3E",
"a+	c #B99237",
"b+	c #A47E22",
"c+	c #EBBD2F",
"d+	c #D3AB28",
"e+	c #D3AB24",
"f+	c #D3AD21",
"g+	c #B99922",
"h+	c #FFEF0B",
"i+	c #0F0B0C",
"j+	c #241C1B",
"k+	c #A38455",
"l+	c #FFD241",
"m+	c #F6C33D",
"n+	c #E1B846",
"o+	c #FFF211",
"p+	c #FFF40A",
"q+	c #FFE319",
"r+	c #FFF50C",
"s+	c #F2BD35",
"t+	c #DDB845",
"u+	c #D9B94B",
"v+	c #A98F51",
"w+	c #A98F4F",
"x+	c #A98F4E",
"y+	c #A9914E",
"z+	c #A9914C",
"A+	c #A9914B",
"B+	c #A9924B",
"C+	c #A99148",
"D+	c #A99147",
"E+	c #A99247",
"F+	c #A99246",
"G+	c #A89245",
"H+	c #A89344",
"I+	c #A99344",
"J+	c #A99341",
"K+	c #A99340",
"L+	c #A9933F",
"M+	c #A9943D",
"N+	c #A9943C",
"O+	c #A9943A",
"P+	c #A99438",
"Q+	c #A99538",
"R+	c #A99536",
"S+	c #A99636",
"T+	c #A89636",
"U+	c #A99637",
"V+	c #A99537",
"W+	c #A99635",
"X+	c #A99835",
"Y+	c #AA9635",
"Z+	c #AA9935",
"`+	c #AD9A35",
" @	c #AE9B36",
".@	c #AF9B36",
"+@	c #AF9C37",
"@@	c #B09C37",
"#@	c #B09D37",
"$@	c #B19F38",
"%@	c #B29F39",
"&@	c #B2A039",
"*@	c #AA9835",
"=@	c #A79433",
"-@	c #A39132",
";@	c #A28F30",
">@	c #A49133",
",@	c #A68D45",
"'@	c #2B2C2E",
")@	c #2C2C2F",
"!@	c #323236",
"~@	c #333335",
"{@	c #353538",
"]@	c #363738",
"^@	c #373839",
"/@	c #38393A",
"(@	c #3A3A3D",
"_@	c #3C3C3E",
":@	c #3D3D3F",
"<@	c #3D3E3F",
"[@	c #3E3F40",
"}@	c #303032",
"|@	c #272729",
"1@	c #1E1E21",
"2@	c #161617",
"3@	c #1A1A1A",
"4@	c #1E1E20",
"5@	c #232324",
"6@	c #414143",
"7@	c #464645",
"8@	c #484848",
"9@	c #404041",
"0@	c #3A3C3C",
"a@	c #282828",
"b@	c #222221",
"c@	c #191919",
"d@	c #232424",
"e@	c #292928",
"f@	c #464747",
"g@	c #474646",
"h@	c #4C4C4C",
"i@	c #4E4E4E",
"j@	c #535353",
"k@	c #545454",
"l@	c #555555",
"m@	c #48484A",
"n@	c #484747",
"o@	c #111111",
"p@	c #121212",
"q@	c #141414",
"r@	c #2B2A2A",
"s@	c #212121",
"t@	c #131313",
"u@	c #5C5C5D",
"v@	c #666666",
"w@	c #161616",
"x@	c #5A5A5A",
"y@	c #868686",
"z@	c #151515",
"A@	c #1D1D1D",
"B@	c #151415",
"C@	c #141415",
"D@	c #1A1C1A",
"E@	c #314F24",
"F@	c #324F25",
"G@	c #1B201B",
"H@	c #1E241E",
"I@	c #243725",
"J@	c #293728",
"K@	c #B8B8B8",
"L@	c #171717",
"M@	c #434344",
"N@	c #5B4F44",
"O@	c #635340",
"P@	c #5B5141",
"Q@	c #20251E",
"R@	c #59A73E",
"S@	c #5AA83F",
"T@	c #212C20",
"U@	c #283629",
"V@	c #2A532C",
"W@	c #355436",
"X@	c #151514",
"Y@	c #737373",
"Z@	c #5B5B5B",
"`@	c #606060",
" #	c #616161",
".#	c #806644",
"+#	c #A97C41",
"@#	c #926D3C",
"##	c #141214",
"$#	c #484548",
"%#	c #605F60",
"&#	c #727272",
"*#	c #5D5D5D",
"=#	c #3C3A3C",
"-#	c #676767",
";#	c #515152",
">#	c #6A5B47",
",#	c #7D633F",
"'#	c #6D593F",
")#	c #646364",
"!#	c #8B8B8B",
"~#	c #6B6B6B",
"{#	c #7C7C7C",
"]#	c #1B1B1B",
"^#	c #525253",
"/#	c #71614B",
"(#	c #7D6443",
"_#	c #776146",
":#	c #1E1E1E",
"<#	c #686868",
"[#	c #40403F",
"}#	c #7D7D7D",
"|#	c #161615",
"1#	c #242324",
"2#	c #242423",
"3#	c #242422",
"4#	c #232425",
"5#	c #646464",
"6#	c #707070",
"7#	c #29281E",
"8#	c #3A3928",
"9#	c #4B4B31",
"0#	c #323122",
"a#	c #BCBCBC",
"b#	c #797979",
"c#	c #3A3A23",
"d#	c #83813F",
"e#	c #514F2B",
"f#	c #8B8A4B",
"g#	c #9F9F9F",
"h#	c #1C1C1C",
"i#	c #171914",
"j#	c #171713",
"k#	c #161611",
"l#	c #C3C3C3",
"m#	c #141515",
"n#	c #6F6F63",
"o#	c #171715",
"p#	c #191914",
"q#	c #171716",
"r#	c #918F4D",
"s#	c #85843D",
"t#	c #47472F",
"u#	c #2B2B2A",
"v#	c #5F5F31",
"w#	c #686736",
"x#	c #35351E",
"y#	c #4F4F39",
"z#	c #686845",
"A#	c #4E4D38",
"B#	c #767676",
"C#	c #949494",
"D#	c #989898",
"E#	c #888888",
"F#	c #313120",
"G#	c #383827",
"H#	c #25241C",
"I#	c #161515",
"J#	c #191912",
"K#	c #171612",
"L#	c #212117",
"M#	c #21211B",
"N#	c #141412",
"O#	c #141413",
"P#	c #393922",
"Q#	c #4F4F32",
"R#	c #666440",
"S#	c #51512F",
"T#	c #63623E",
"U#	c #363621",
"V#	c #52512F",
"W#	c #605F36",
"X#	c #595831",
"Y#	c #4D4C2A",
"Z#	c #717171",
"`#	c #151615",
" $	c #151616",
".$	c #5B5B5C",
"+$	c #363737",
"@$	c #525152",
"#$	c #1D211D",
"$$	c #538539",
"%$	c #54853A",
"&$	c #1E281D",
"*$	c #243025",
"=$	c #274729",
"-$	c #2F4831",
";$	c #141514",
">$	c #1D201B",
",$	c #3C772F",
"'$	c #3D772F",
")$	c #1C241C",
"!$	c #232C24",
"~$	c #29442A",
"{$	c #2F4430",
"]$	c #6F6F6F",
"^$	c #8A8A8A",
"/$	c #6D6D6D",
"($	c #232222",
"_$	c #222323",
":$	c #1E201A",
"<$	c #141411",
"[$	c #3C3C2A",
"}$	c #3A3929",
"|$	c #848484",
"1$	c #514F36",
"2$	c #605F3C",
"3$	c #6A693C",
"4$	c #636333",
"5$	c #191716",
"6$	c #1D1D15",
"7$	c #202016",
"8$	c #202017",
"9$	c #A3A3A3",
"0$	c #C2C2C2",
"a$	c #141313",
"b$	c #5C5D59",
"c$	c #131314",
"d$	c #141314",
"e$	c #999999",
"f$	c #9D9D9D",
"g$	c #A9A9A9",
"h$	c #3C3C21",
"i$	c #797644",
"j$	c #41432B",
"k$	c #4D4D28",
"l$	c #6B6B3D",
"m$	c #30301E",
"n$	c #807F3D",
"o$	c #85834E",
"p$	c #817F4D",
"q$	c #5A5A39",
"r$	c #161613",
"s$	c #858585",
"t$	c #39392B",
"u$	c #27251B",
"v$	c #1E1E19",
"w$	c #333223",
"x$	c #383723",
"y$	c #28281E",
"z$	c #151516",
"      . . . + + + + + + + @ @ @ @ @ @ @ + + + + + . . . . . .                 # # # # # # # # # # #         . . + + + @ @ + @ $ ",
"% & & & & & & & & & & & & & & & & & & & & & & & & & & & & & & & & & & * & & & & & & & & & & & & & & & & & & & & & & & & & & & = ",
"- ; ;   > , ' ) ' ! ) ~ + ~ & { ] & ^ ] / $ ; ; ( _ @ : ! ; ; < [ } [ { & ) [ * } ! $ ^ | 1 @ ' 2 3 # 4 ] _ 3 ; ; ; ; ; ; ; ; # ",
"5 6 7 8 9   0 ; a b c ] d e f [ 5 [ g h 0 ; ; ; i j 7 k l ; ; % m n o p q & r > s t u v w x . y # z p j A B 5 ; ; ; ; ; ; ; ; ) ",
"C D ) @ ^ * % ! E b ) F G b ' H E = & ) E ; ; ; < I H s ) ; ; J * * _   b 2 ] $ K L @ M d ~ = , ) $ N O * , E ; P ; ; ; ; ; ; @ ",
"Q R S T U V W X Y Y Z ` `  ...+.@.#.@.@. .$.$.` %.&.*.=.-.;.V >.>.,.'.).!.!.~.{.].^./.^.(.(.(._._.(.:.(.(.<.<.(.[.[._._.}.|._.1.",
"2.2.2.2.2.2.2.2.3.4.2.2.2.2.2.2.2.2.2.2.2.2.2.2.2.2.2.2.2.2.2.2.2.2.2.2.2.2.2.2.2.2.2.2.2.2.2.2.2.2.2.2.2.2.2.2.2.2.2.2.2.2.2.2.",
"2.2.2.2.2.2.2.5.6.7.8.2.2.2.2.2.2.9.0.9.2.2.9.2.2.9.9.2.2.2.9.9.9.9.2.9.9.9.9.2.9.9.9.9.2.9.9.9.9.2.9.9.9.9.2.2.2.2.2.2.2.2.2.2.",
"2.2.2.a.2.2.b.c.d.6.e.2.2.2.2.2.2.9.2.9.2.2.9.2.9.2.2.9.2.2.9.2.2.2.2.9.2.2.9.2.9.2.2.2.2.2.2.2.9.2.9.2.2.2.2.2.2.2.2.2.2.2.2.2.",
"2.f.g.h.a.i.j.k.2.2.l.m.2.2.2.2.2.9.2.9.2.2.9.2.n.3.3.9.2.2.9.9.9.2.2.9.2.2.9.2.9.9.9.2.2.2.2.2.9.2.9.9.9.2.2.2.2.2.2.9.9.9.2.2.",
"o.p.q.r.s.t.u.v.w.x.y.z.2.2.2.2.2.9.2.2.9.9.9.2.2.9.9.2.2.2.2.2.2.9.2.9.2.2.9.2.2.2.2.9.2.2.2.2.9.2.2.2.2.9.2.2.2.2.2.2.2.2.2.2.",
"6.A.B.6.C.D.6.E.2.2.2.2.2.2.2.2.2.9.2.2.2.2.9.F.9.2.2.2.2.2.9.2.2.9.2.9.2.2.9.2.9.G.2.9.2.9.9.2.9.2.9.G.H.9.2.2.2.2.2.2.2.2.2.2.",
"6.6.6.6.6.6.6.I.2.2.2.2.2.2.2.2.2.9.2.2.2.2.9.2.9.9.9.9.2.2.2.9.9.2.2.9.9.9.9.2.2.9.9.2.2.9.9.2.9.2.2.9.9.2.2.2.2.2.2.2.2.2.2.2.",
"6.6.6.6.6.6.6.J.K.L.M.2.2.2.2.2.2.2.2.2.2.2.2.2.2.2.2.2.2.2.2.2.2.2.2.2.2.2.2.2.2.2.2.2.2.2.2.2.2.2.2.2.2.2.2.2.2.2.2.2.2.2.2.2.",
"N.O.P.Q.R.S.T.U.V.W.X.Y.2.2.2.2.2.2.2.2.2.2.2.2.2.2.2.2.2.2.2.2.2.2.2.2.2.2.2.2.2.2.2.2.2.2.2.2.2.2.2.2.2.2.2.2.2.2.2.2.2.2.2.2.",
"Z.2.2.`. +2.2.2..+++@+2.2.2.2.2.2.2.2.2.2.2.2.2.2.2.2.2.2.2.2.2.2.2.2.2.2.2.2.2.2.2.2.2.2.2.2.2.2.2.2.2.2.2.2.2.2.2.2.2.2.2.2.2.",
"2.2.2.2.2.2.2.2.2.2.2.2.#+$+%+&+*+=+2.2.2.2.2.2.2.2.-+;+2.2.2.2.2.2.2.2.2.2.2.2.2.2.2.2.2.2.2.2.2.2.2.2.2.2.2.2.2.2.2.2.2.2.2.2.",
"2.2.2.2.2.2.2.2.2.2.2.2.>+,+'+)+!+~+2.2.2.2.2.2.2.{+]+^+2.2.2.2.2.9.9.9.2.9.9.9.2.9.9.9.2.9.9.2.9.2.9.2.9.9.9.2.2.2.2.2.2.2.2.2.",
"6./+2.2.2.2.2.2.2.2.2.2.2.2.2.2.2.2.2.2.2.2.(+2.2.2.2.2.2.2.2.2.2.2.2.2.2.9._+9.2.9.:+<+[+}+9.2.9.2.9.2.2.2.9.2.9.9.2.2.2.2.2.2.",
"|+1+2+2.2.2.2.2.3+4+2.2.2.2.2.2.5+6+7+8+9+0+a+b+c+d+e+f+g+2.2.2.2.2.9.9.2.9.h+9.2.9.9.9.2.9.9.2.9.9.9.2.2.9.2.2.9.9.2.2.2.2.2.2.",
"i+j+k+2.2.2.2.2.2.2.2.2.2.2.2.2.l+2.m+n+2.2.2.2.2.2.2.2.2.2.2.2.2.9.2.2.2.9.o+9.2.p+q+9.2.r+9.2.2.2.9.2.2.9.2.2.2.2.2.2.2.2.2.2.",
"2.2.2.2.2.2.2.2.2.2.2.2.2.2.2.2.2.2.s+t+u+2.2.2.2.2.2.2.2.2.2.2.2.9.9.9.2.9.9.9.2.9.9.9.2.9.9.2.2.2.9.2.2.9.2.2.2.2.2.2.2.2.2.2.",
"2.2.2.2.2.2.2.2.2.2.2.2.2.2.2.2.2.2.2.2.2.2.2.2.2.2.2.2.2.2.2.2.2.2.2.2.2.2.2.2.2.2.2.2.2.2.2.2.2.2.2.2.2.2.2.2.2.2.2.2.2.2.2.2.",
"v+w+x+y+z+z+z+A+B+C+D+E+F+G+H+I+J+K+K+L+M+N+O+P+Q+R+R+R+R+S+S+T+T+U+S+S+V+W+S+S+S+W+W+X+Y+Z+`+ @.@+@@@#@$@$@%@&@%@.@*@=@-@;@>@,@",
"P P P P P P P P P P P P P '@)@'@P P )@P P P P P )@P P P P P P P P P P P )@)@P P P )@P )@)@!@~@{@]@^@/@(@_@:@<@[@/@}@|@1@2@3@4@5@",
"E E E E E E E E E E E E E E E E E E 6@6@E E E + % E E E E E E E E E E E E E E % % E E E 3 3 ' 7@< _ _ 8@8@8@[ [ @ 9@b * ] 0@@ 7 ",
"; ; ; ; ; # # ; ; ; ; ; # # # # ; ; ; # # # ; ) # ; ; # # ; ; ; ; ; ; ; ; ; # 8@_ . @ $ J = & * ] 2 2 b K ! } @ a@b@c@3@w d@a@e@",
"_ _ _ < < < _ _ < < < f@_ M _ g@< _ < < < < < _ 8@8@[ 8@[ [ 8@[ [ [ 4 4 h@h@h@i@i@i@~ ~ - ^ ^ ^ j@k@l@l@l@k@- h@_ ' 3 ' < < m@n@",
"] ) ' o@p@p@w A q@q@  & K , r@s@q@q@q@q@q@q@q@| | ] 8 v v v v v v v v v v v v p p p v v v v v v v v v v v 8 * a@{ t@q@q@q@q@q@q@",
"[ a b < s + u@v@w@w@x@y@m t ~ 4 w@w@w@w@w@w@w@8 * / 8@w@w@w@w@w@w@w@z@A@$ K < _ < < ! = w q@w@w@w@w@w@w@w@J _ f | z@w@w@B@C@C@C@",
"q@q@z@w@w@D@E@F@G@w@B@H@I@J@t@z@w@w@w@w@w@w@w@8 = / , w@w@w@w@w@z@+ / i@a c K@K@K@K@K@5 i@/ = L@w@w@w@w@w@# b j@a@z@w@c@M@N@O@P@",
"w@w@w@w@w@Q@R@S@T@q@q@U@V@W@X@w@w@w@w@w@w@w@w@7 w@w z@w@w@w@z@d j@: K@Y@Z@[ , 2 2 E h@`@t K@ #j@+ z@w@w@w@z@w w@a@z@w@3@h@.#+#@#",
"w@w@w@w@w@w@##$#%# #&#*#=#q@w@w@w@w@w@w@w@w@w@7 z@w@w@w@w@z@! *#K@-#, . ; )   b b   ) ; @ ' 0 K@Z@< L@w@w@w@w@w@a@z@w@3@;#>#,#'#",
"w@w@w@w@w@w@)#2 3 k@^ } &#-#q@w@w@w@w@w@w@w@w@7 z@w@w@w@w@i@K@&#%   ; ; )  #!#5 ~#Z@8@; ; ;   8@{#K@^ ]#w@w@w@w@a@z@w@3@^#/#(#_#",
"w@w@w@w@:#<#&#^ _ [#, [ ( &#m q@w@w@w@w@w@w@w@7 z@w@w@z@~  #-#J ; ; ; { y K@u }#<#- ] < ) ; ; ; ] &#<#^ c@w@w@w@a@z@|#z@1#2#3#4#",
"w@w@w@w@' 5#^ , ! ! ! ! k@Y@u p@w@w@w@w@w@w@w@7 z@w@z@, K@n + ; ; ; ; % K@K@K@}#<#- ] v K ; ; ; ; J 6#K@8@q@w@w@a@z@w@w@7#8#9#0#",
"w@w@w@w@]#&#+ ! ! ! ! ! b a#p 3@w@w@w@w@w@w@w@7 z@w@) : v@+ ; ; ; ; ; y K@K@K@}#<#^ ] ]#2 ; ; ; ; ; = b#1 & w@w@a@z@w@w@c#d#e#f#",
"w@w@w@w@*   i@! ! ! ! ! ! g#8 > t@w@w@w@w@w@w@7 z@q@^ K@= ; ; ; ; ; ; K@K@K@K@}#<#^ ] h#& ; ; ; ; ; ; , K@k@c@w@a@z@w@w@X@i#j#k#",
"w@w@w@w@w@; &#K ! ! ! ! 2 l#L@w@w@w@w@w@w@w@w@7 z@J : j@# ; ; ; ; ; ; ~#K@K@K@}#<#^ ] ]#K ; ; ; ; ; ;   n *#K w@a@z@w@|#w@w@w@w@",
"w@w@w@w@w@z@/ < ! ! ! K c k@z@w@w@w@w@w@w@w@w@7 q@/ K@  ; ; ; ; ; ; ; = K@K@u }#<#^ ] ; * ; ; ; ; ; ; ) * K@k@q@a@z@w@z@7 | | | ",
"q@q@m#w@w@w@:#&#^ &#[ &#n#L@w@o#p#q#|#w@w@w@w@7 h#j@*#  ; ; ; ; ; ; ; ) k K@j }#<#- ! E ; ; ; ; ; ; ; ; # &#4 # a@z@w@3@~ b#6# #",
"r#s#t#w@w@w@w@]## < 3 u#v#w#x#y#z#A#w@w@w@w@w@7 * K@! ; ; ; ; ; ; ; ; ; ) ' B#{#~#1 K ) ; ; ; ; ; ; ; ; # h@g ! a@z@w@3@h@C#D#E#",
"F#G#H#|#w@w@w@w@w@z@z@w@I#J#K#H#L#M#w@w@w@w@w@7 E  #. ; ; ; ; ; ; ; ; ; ; ; ) # # ) ; ; ; ; ; ; ; ; ; ; ; 2 ( [ a@z@w@c@[ h@h@[ ",
"w@w@w@w@w@w@w@w@w@w@w@w@w@w@w@w@w@w@w@w@w@w@w@7 8@K@| ; ; ; ; ; ; ; ; ; ; ; ; ; ; ; ; ; ; ; ; ; ; ; ; ; ; . K@h@| z@w@X@N#N#O#N#",
"w@w@w@w@w@w@w@w@w@w@w@w@w@w@w@w@w@w@w@w@w@w@w@| _ > d ; ; ; ; ; ; ; ; ; ; ; ; ; ; ; ; ; ; ; ; ; ; ; ; ; ; ) K@h@7 z@w@P#Q#R#S#T#",
"w@w@w@w@w@w@w@w@w@w@w@w@w@w@w@w@w@w@w@w@w@w@w@d 8@K@d ; ; ; ; ; ; ; ; ; ; ; ; ; ; ; ; ; ; ; ; ; ; ; ; ; ; { K@[ v z@w@U#V#W#X#Y#",
"w@w@w@w@w@K f E 6#q@t@Z#: m < w@w@w@w@w@w@w@w@{ _ K@| ; ; ; ; ; ; ; ; ; ; ; ; ; ; ; ; ; ; ; ; ; ; ; ; ; ;   K@8@| w@w@w@`#X@w@ $",
"w@w@w@w@w@2 [ .$+$w@q@* x@@$* w@2@w@w@w@w@w@w@p 8@K@# ; ; ; ; ; ; ; ; ; ; ; ; ; ; ; ; ; ; ; ; ; ; ; ; ; ; * ~#h@| w@w@z@t@t@t@t@",
"w@w@w@w@w@#$$$%$&$w@w@*$=$-$;$w@w@w@w@w@w@w@w@w , 5 b ) ; ; ; ; ; ; ; ; ; ; ; ; ; ; ; ; ; ; ; ; ; ; ; ; # 8@}#< w w@w@3@4 8@4 _ ",
"w@w@w@w@w@>$,$'$)$t@t@!$~${$z@w@w@w@w@w@w@w@w@z@. 8@k . ; ; ; ; ; ; ; ; ; ; ; ; ; ; ; ; ; ; ; ; ; ; ; ; # ]$E } ]#w@w@3@B#i D#^$",
"w@w@w@w@w@w@t@l@: &#&#`@8@q@w@w@w@w@w@w@w@w@w@w@7 i@K@) ) ; ; ; ; ; ; ; ; ; ; ; ; ; ; ; ; ; ; ; ; ; ; ; @ K@k@7 z@w@w@]#-#`@/$6#",
"w@w@w@w@w@c@c &#~ f x@' 2 &#q@w@w@w@w@w@w@w@w@w@A@, 1 4   ; ; ; ; ; ; ; ; ; ; ; ; ; ; ; ; ; ; ; ; ; ; # Z@1 < s@w@w@w@z@($_$_$_$",
"w@w@w@w@8 6#&#- % K ! < 6#. &#q@w@w@w@w@w@w@w@w@z@| l@K@. ; ; ; ; ; ; ; ; ; ; ; ; ; ; ; ; ; ; ; ; ; ; & K@k@; w@w@w@w@w@:$<$[$}$",
"w@w@w@w@E : i@! ! ! ! ! / y@|$p@w@w@w@w@w@w@w@w@w@h#] 1 *## ; ; ; ; ; ; ; ; ; ; ; ; ; ; ; ; ; ; ; ; . &#~ % :#w@w@w@w@w@1$2$3$4$",
"w@w@w@w@z@@ J ! ! ! ! ! b K@:#p w@w@w@w@w@w@w@w@w@w@v [ K@k # ; ; ; ; ; ; ; ; ; ; ; ; ; ; ; ; ; ; . <#K@~ 8 z@w@w@w@w@w@5$6$7$8$",
"w@w@w@w@b &#[ ! ! ! ! ! ! 9$7 0 q@w@w@w@w@w@w@w@w@w@z@| j@k Z@  ; ; ; ; ; ; ; ; ; ; ; ; ; ; ; ; @ <#: k@{ L@w@w@w@w@w@w@w@w@w@w@",
"w@w@w@w@w@d = K ! ! ! ! b 0$z@w@w@w@w@w@w@w@z@d @ L@w@L@d k@K@m & # ; ; ; ; ; ; ; ; ; ; ; ; # b 6#K@l@; 3@w@w@w@w@w@w@z@:#:#:#:#",
"w@w@w@w@w@q@&#8@K ! ! K Z#2 z@w@w@w@w@w@w@w@w@6#l@f w@w@L@| 4 *#K@k =   ) ; ; ; ; ; ; ;   ]  #K@k - { 3@w@w@w@w@w@w@w@3@^ ( Z@`@",
"C@a$q@w@w@w@]#- &#h@/ &#b$w@w@c$d$t@O#w@w@w@3@{#Y@j@w@w@w@z@p * - l@K@c ~ K J + @ = , k@]$K@1 - ! v w@w@w@w@w@w@w@w@w@3@- e$f$g$",
"h$i$j$w@w@w@w@w@8 &#] p k$l$m$n$o$p$q$r$w@w@z@s$Z@x@w@w@w@w@w@]#v ! h@i@K@*#K@K@K@K@K@K@/ i@E 7 A@w@w@w@w@w@w@w@w@w@w@3@~ : 1 x@",
"t$u$v$w@w@w@w@w@w@z@|#w@|#O#t@w$8#x$y$|#w@w@z@z@z@z@w@w@w@w@w@w@w@h#s@; , E _ h@h@8@3 , @ s@A@z@w@w@w@w@w@w@w@w@w@w@w@q@p@p@p@p@",
"w@w@|#w@w@w@w@w@w@t@w@w@w@w@w@w@w@w@w@w@w@w@w@w@w@w@w@w@w@w@w@w@w@w@w@z@]#p w :#:#w s@h#z@w@w@w@w@w@w@w@w@w@w@w@w@w@w@w@w@w@w@w@",
"z@z@z@X@z@z@z@z@z@p@z$z@z@z@B@z@z@z@z@z@z@z@z@z@z@z@z@z@z@z@z@z@z@z@z@z@z@z@z@z@z@z@z@z@z@z@z@z@z@z@z@z@z@z@z@z@z@z@z@z@z@z@z@z@",
"z@z@z@X@z@z@z@z@z@p@z$z@z@z@B@z@z@z@z@z@z@z@z@z@z@z@z@z@z@z@z@z@z@z@z@z@z@z@z@z@z@z@z@z@z@z@z@z@z@z@z@z@z@z@z@z@z@z@z@z@z@z@z@z@"};
